<?xml version="1.0" standalone="no"?><!DOCTYPE svg PUBLIC "-//W3C//DTD SVG 1.1//EN" "http://www.w3.org/Graphics/SVG/1.1/DTD/svg11.dtd"><svg t="1735037408730" class="icon" viewBox="0 0 1024 1024" version="1.1" xmlns="http://www.w3.org/2000/svg" p-id="2617" xmlns:xlink="http://www.w3.org/1999/xlink" width="200" height="200"><path d="M557.6 236.8v12.8H179.2v454.4h640v-47.232h12.8V716.8H166.4V236.8h391.2zM832 236.8v185.6h-12.8V249.6h-121.6v-12.8h134.4z" fill="#000000" p-id="2618"></path><path d="M857.6 185.6v64h-145.7536v-12.8H844.8v-38.4H153.6v38.4h401.92v12.8H140.8V185.6zM851.2 704v76.8H147.2v-76.8h704z m-12.8 12.8H160v51.2h678.4v-51.2z" fill="#000000" p-id="2619"></path><path d="M281.6 768h64v115.2H281.6zM467.2 768h64v72H467.2zM652.8 768h64v115.2h-64z" fill="#C3C4CD" p-id="2620"></path><path d="M345.6 768v115.2H281.6v-115.2h64z m-12.8 12.8h-38.4v89.6h38.4v-89.6zM531.2 768v72H467.2V768h64z m-12.8 12.8h-38.4v46.4h38.4V780.8zM716.8 768v115.2h-64v-115.2h64z m-12.8 12.8h-38.4v89.6h38.4v-89.6zM422.4 281.6v166.4H230.4V281.6h192z m-12.8 12.8H243.2v140.8h166.4V294.4z" fill="#000000" p-id="2621"></path><path d="M262.4 313.6h128v12.8H262.4zM262.4 358.4h128v12.8H262.4zM262.4 403.2h57.6v12.8h-57.6z" fill="#000000" p-id="2622"></path><path d="M256 512m-25.6 0a25.6 25.6 0 1 0 51.2 0 25.6 25.6 0 1 0-51.2 0Z" fill="#FFDD33" p-id="2623"></path><path d="M256 576m-25.6 0a25.6 25.6 0 1 0 51.2 0 25.6 25.6 0 1 0-51.2 0Z" fill="#FE506C" p-id="2624"></path><path d="M320 524.8h64v128H320z" fill="#FE506C" p-id="2625"></path><path d="M428.8 499.2h64v153.6H428.8z" fill="#FFDD33" p-id="2626"></path><path d="M876.8 409.6v256H556.8V409.6h320z m-12.8 12.8H569.6v230.4h294.4V422.4z" fill="#000000" p-id="2627"></path><path d="M384 569.6h44.8v83.2h-44.8z" fill="#00C7FE" p-id="2628"></path><path d="M384 524.8v128H320V524.8h64z m-12.8 12.8h-38.4v102.4h38.4V537.6zM492.8 499.2v153.6H428.8V499.2h64z m-12.8 12.8h-38.4v128h38.4V512z" fill="#000000" p-id="2629"></path><path d="M441.6 569.6v83.2H371.2V569.6h70.4z m-12.8 12.8h-44.8v57.6h44.8v-57.6z" fill="#000000" p-id="2630"></path><path d="M256 640m-25.6 0a25.6 25.6 0 1 0 51.2 0 25.6 25.6 0 1 0-51.2 0Z" fill="#00C7FE" p-id="2631"></path><path d="M256 486.4a25.6 25.6 0 1 1 0 51.2 25.6 25.6 0 0 1 0-51.2z m0 12.8a12.8 12.8 0 1 0 0 25.6 12.8 12.8 0 0 0 0-25.6zM256 550.4a25.6 25.6 0 1 1 0 51.2 25.6 25.6 0 0 1 0-51.2z m0 12.8a12.8 12.8 0 1 0 0 25.6 12.8 12.8 0 0 0 0-25.6zM256 614.4a25.6 25.6 0 1 1 0 51.2 25.6 25.6 0 0 1 0-51.2z m0 12.8a12.8 12.8 0 1 0 0 25.6 12.8 12.8 0 0 0 0-25.6zM845.8048 529.6a6.4 6.4 0 1 1 10.7904 6.8864c-23.0208 36.0832-34.3552 50.7776-42.2912 50.7776-4.8256 0-6.4768-1.0688-17.8816-9.6192-0.96-0.7232-1.728-1.2928-2.4576-1.824-4.864-3.5328-8.0896-5.2416-9.3952-5.2416l0.192 0.0128 0.0768 0.0384c0.032 0.0512-0.0896 0.1664-0.32 0.384l-0.2816 0.2496c-1.088 1.0112-2.4192 2.624-3.9808 4.864a143.616 143.616 0 0 0-4.0128 6.1312c-4.6592 7.424-5.1072 8.1216-6.9568 10.56-3.4944 4.608-6.4704 7.1104-10.7904 7.1104-4.2432 0-7.232-2.432-10.88-6.9824a88.064 88.064 0 0 1-3.712-5.0688 291.2768 291.2768 0 0 1-1.8368-2.7136l-1.8368-2.7328c-1.6896-2.496-2.8864-4.2176-4.0512-5.7856a47.1936 47.1936 0 0 0-4.7104-5.4976l-0.096-0.0896-0.192 0.2176a25.7664 25.7664 0 0 0-2.08 3.072l-0.5952 1.024c-2.0672 3.6608-3.264 6.2464-8.1088 17.1456-6.784 15.2576-10.304 21.8176-15.2192 26.0992-4.9408 4.3072-10.7904 4.6016-16.736 1.8304-3.5264-1.6384-5.4016-3.0272-12.224-8.5312-6.752-5.44-10.24-7.4752-13.1008-7.4752-7.2512 0-31.6352 13.6768-70.048 40.2048a6.4 6.4 0 1 1-7.2768-10.5344c41.408-28.5888 66.1504-42.4704 77.3248-42.4704 6.944 0 12.0064 2.944 21.1392 10.3168 8.896 7.168 11.136 8.2176 12.512 7.008 2.848-2.4768 6.1312-8.608 11.9296-21.6512 11.4688-25.792 13.5808-29.536 22.144-29.536 5.76 0 10.0992 3.84 15.6032 11.2256 1.312 1.76 2.6048 3.616 4.3968 6.272 5.184 7.6864 5.184 7.6928 6.7712 9.664 0.1792 0.2304 0.352 0.448 0.5248 0.64l0.288 0.3328 0.1792-0.2112 0.4864-0.6272 0.4928-0.6592 0.4608-0.6272c0.9792-1.3696 2.0352-3.04 5.3632-8.3392 1.8176-2.8992 3.072-4.8256 4.3648-6.6688 5.0688-7.232 9.1392-11.0016 14.7968-11.0016 5.056 0 9.792 2.5088 16.9216 7.6928 0.7872 0.576 1.6 1.1712 2.6112 1.9264 5.0688 3.8016 7.9232 5.7984 9.28 6.6112l0.2176 0.128 0.4352-0.3776 0.5312-0.4992c1.8048-1.7344 4.192-4.5056 7.0912-8.2624 6.0096-7.7888 14.0736-19.6032 24.1472-35.392z" fill="#000000" p-id="2632"></path><path d="M692.736 544.032c2.24-5.088 4.256-9.4016 6.2144-13.1648 6.1248-11.776 10.9696-17.792 17.8496-17.792 5.088 0 10.3232 1.984 18.3808 6.1312l2.6688 1.3952c7.0272 3.712 10.368 5.3248 12.2112 5.8432l0.4096-0.5632c0.288-0.4288 0.6016-0.9408 0.9408-1.536l0.5184-0.96c1.152-2.176 1.4336-2.7904 4.5568-9.856 6.848-15.4688 10.2656-20.7296 18.3488-20.7296 5.952 0 9.8304 2.5344 23.552 13.1712 0.4928 0.3712 0.4928 0.3712 0.9728 0.7488 5.2608 4.064 8.3456 6.2848 11.1488 7.8976 2.5152 1.4528 4.0256 1.888 3.904 1.9264 1.5552-0.5312 5.0688-3.712 9.7024-9.3888 5.1648-6.336 11.5392-15.4624 19.0784-27.3472a6.4 6.4 0 0 1 10.8096 6.8544c-16.3008 25.6832-27.3344 39.2128-35.4432 41.9904-7.1296 2.4448-12.9088-0.896-27.0272-11.808l-0.2944-0.224-0.3968-0.3072-0.2944-0.2304c-8.4864-6.5792-12.9152-9.6128-14.9312-10.3168l-0.2432-0.0768-0.1792 0.1664c-0.3392 0.3456-0.736 0.832-1.1712 1.4528l-0.448 0.6656c-1.5104 2.3232-2.976 5.312-5.376 10.7392-3.3152 7.4752-3.5904 8.0832-4.9536 10.656-3.4624 6.5536-6.6048 10.0736-11.9808 10.0736-4.7488 0-7.3728-1.184-19.392-7.52l-2.5472-1.3376c-5.2672-2.7072-8.928-4.2048-11.3344-4.6016l-0.48-0.064-0.1408 0.128c-0.256 0.224-0.5568 0.5248-0.8896 0.9024l-0.512 0.6208c-1.6384 2.0288-3.5456 5.1328-5.6576 9.2032a226.6368 226.6368 0 0 0-6.784 14.56c-1.0752 2.4832-2.1568 5.056-3.5072 8.3008l-3.2192 7.7568c-2.5088 6.0096-4.0256 9.3952-5.3184 11.7248-2.9824 5.344-8.2624 6.976-14.5984 6.0288-3.584-0.5376-5.5296-1.1712-13.824-4.1728a151.7184 151.7184 0 0 0-4.8128-1.6704c-6.624-2.1504-10.7904-2.5344-13.216-1.3056-7.456 3.7888-24.832 25.9136-50.24 64.8768a6.4 6.4 0 0 1-10.72-6.9888c26.9952-41.408 44.7488-64.0128 55.168-69.2992 6.3488-3.2256 13.344-2.5856 22.9632 0.544 1.536 0.4992 3.0464 1.024 5.2032 1.8048 10.0416 3.6288 12.8384 4.0512 12.896 3.9488 1.4592-2.6112 11.2256-25.952 11.5328-26.752l0.9088-2.0992z" fill="#000000" p-id="2633"></path><path d="M840.1024 437.408a6.4 6.4 0 1 1 9.5808 8.4864c-19.52 22.0352-31.232 34.0224-36.5824 37.1264-6.6368 3.8528-10.1952 1.9456-24.256-8.2112l-1.1584-0.832c-6.112-4.384-9.6192-6.3232-11.0976-6.3232-0.9664 0-5.4528 3.7312-11.2896 10.3872-1.2032 1.3824-2.4768 2.88-3.936 4.6272-0.1728 0.2112-6.8544 8.3392-8.6016 10.3744-3.296 3.8528-5.5872 6.1824-7.7376 7.5968-6.016 3.9488-8.8448 3.0272-27.8144-5.2864-1.5424-0.672-2.752-1.1968-3.904-1.6832-8.0768-3.392-13.2928-4.7424-16.1536-4.16-2.2848 0.4608-5.5168 5.792-10.528 18.336l-0.3456 0.8768-0.4736 1.184-0.6656 1.6768c-6.0288 15.1552-9.6192 21.9328-15.808 26.5792-5.7152 4.288-10.5856 5.9392-21.0816 8.2048-1.664 0.3648-2.2464 0.4864-3.0784 0.6784-8.6656 1.9648-13.44 4.16-17.9328 8.992-7.7184 8.3008-18.5856 37.088-31.6352 85.0176a6.4 6.4 0 1 1-12.352-3.36c13.6704-50.2272 24.8832-79.904 34.6176-90.3744 6.5856-7.0848 13.5232-10.272 24.4672-12.7552 0.896-0.2048 1.4976-0.3392 3.2128-0.704 8.7488-1.8944 12.3264-3.1104 16.096-5.9392 3.5008-2.624 6.5664-8.416 11.6032-21.0688l1.4912-3.7504c7.0144-17.5744 11.136-24.3648 19.8656-26.1376 6.2912-1.28 13.2032 0.512 23.6544 4.9024 1.2288 0.5184 2.496 1.0624 4.096 1.7664 4.5696 2.0032 7.0016 3.0656 8.6848 3.7504l0.928 0.3712c1.0048 0.3904 1.7792 0.6528 2.7904 0.9856 1.568 0.512 2.784 0.7872 3.6096 0.8512h0.064l0.2368-0.192c0.8-0.704 2.0096-1.9712 3.5648-3.7504l0.8128-0.9344c1.6384-1.92 8.2304-9.9328 8.48-10.24 1.5232-1.824 2.8608-3.392 4.1472-4.864 8.6592-9.8944 14.5152-14.7584 20.9152-14.7584 5.3568 0 9.9136 2.5152 18.56 8.7232l1.184 0.8576c5.28 3.808 7.04 5.0112 9.152 6.144 0.64 0.3392 1.1968 0.5952 1.6384 0.768l0.3072 0.1024 0.4224-0.3072c4.4224-3.392 14.9568-14.2848 30.6176-31.8912l1.632-1.8432z" fill="#000000" p-id="2634"></path><path d="M633.6 140.8c70.6944 0 128 57.3056 128 128s-57.3056 128-128 128-128-57.3056-128-128 57.3056-128 128-128z m0 89.6a38.4 38.4 0 1 0 0 76.8 38.4 38.4 0 0 0 0-76.8z" fill="#00C7FE" p-id="2635"></path><path d="M633.6 140.8c70.6944 0 128 57.3056 128 128s-57.3056 128-128 128-128-57.3056-128-128 57.3056-128 128-128z m0 12.8c-63.6224 0-115.2 51.5776-115.2 115.2s51.5776 115.2 115.2 115.2 115.2-51.5776 115.2-115.2-51.5776-115.2-115.2-115.2z m0 64a51.2 51.2 0 1 1 0 102.4 51.2 51.2 0 0 1 0-102.4z m0 12.8a38.4 38.4 0 1 0 0 76.8 38.4 38.4 0 0 0 0-76.8z" fill="#000000" p-id="2636"></path><path d="M611.0912 300.6912l11.1552 6.272-43.2512 76.9536-11.1552-6.272zM673.5744 271.3152l82.4896 35.0848-5.0112 11.776-82.4832-35.0848zM572.352 156.8128l47.8848 74.4128-10.7648 6.9248-47.8848-74.4064z" fill="#000000" p-id="2637"></path></svg>